<svg xmlns="http://www.w3.org/2000/svg" viewBox="0 0 200 200">
  <rect width="200" height="200" rx="38" fill="#243D2C"/>
  <line x1="0" y1="50" x2="200" y2="50" stroke="rgba(255,255,255,0.06)" stroke-width="1.5"/>
  <line x1="0" y1="100" x2="200" y2="100" stroke="rgba(255,255,255,0.06)" stroke-width="1.5"/>
  <line x1="0" y1="150" x2="200" y2="150" stroke="rgba(255,255,255,0.06)" stroke-width="1.5"/>
  <line x1="50" y1="0" x2="50" y2="200" stroke="rgba(255,255,255,0.06)" stroke-width="1.5"/>
  <line x1="100" y1="0" x2="100" y2="200" stroke="rgba(255,255,255,0.06)" stroke-width="1.5"/>
  <line x1="150" y1="0" x2="150" y2="200" stroke="rgba(255,255,255,0.06)" stroke-width="1.5"/>
  <polygon points="72,30 128,30 158,82 128,134 72,134 42,82" fill="none" stroke="#5A8C6A" stroke-width="18" stroke-linejoin="round"/>
  <polygon points="72,30 128,30 158,82 128,134 72,134 42,82" fill="#243D2C"/>
  <rect x="68" y="46" width="58" height="16" rx="8" fill="white"/>
  <rect x="68" y="46" width="16" height="74" rx="8" fill="white"/>
  <rect x="68" y="104" width="58" height="16" rx="8" fill="white"/>
  <rect x="96" y="80" width="30" height="16" rx="8" fill="white"/>
  <rect x="110" y="46" width="16" height="34" rx="8" fill="white"/>
  <circle cx="155" cy="34" r="14" fill="none" stroke="#B8892A" stroke-width="7"/>
</svg>
